<svg xmlns="http://www.w3.org/2000/svg" xmlns:xlink="http://www.w3.org/1999/xlink" width="500" zoomAndPan="magnify" viewBox="0 0 375 374.999991" height="500" preserveAspectRatio="xMidYMid meet" version="1.0"><defs><clipPath id="16a465f6ca"><path d="M 37.5 126 L 211 126 L 211 277.824219 L 37.5 277.824219 Z M 37.5 126 " clip-rule="nonzero"/></clipPath><clipPath id="c01750f75a"><path d="M 133 89.574219 L 183 89.574219 L 183 204 L 133 204 Z M 133 89.574219 " clip-rule="nonzero"/></clipPath><clipPath id="2ca1740656"><path d="M 164 89.574219 L 242 89.574219 L 242 249 L 164 249 Z M 164 89.574219 " clip-rule="nonzero"/></clipPath><clipPath id="e42d39035f"><path d="M 194 126 L 337.5 126 L 337.5 277.824219 L 194 277.824219 Z M 194 126 " clip-rule="nonzero"/></clipPath></defs><path d="M 187.507812 97.496094 C 197.464844 97.496094 205.535156 105.558594 205.535156 115.507812 C 205.535156 125.445312 197.464844 133.515625 187.507812 133.515625 C 177.539062 133.515625 169.464844 125.445312 169.464844 115.507812 C 169.464844 105.558594 177.535156 97.496094 187.507812 97.496094 Z M 187.507812 97.496094 " fill-opacity="1" fill-rule="evenodd"/><g clip-path="url(#16a465f6ca)"><path d="M 191.738281 188.84375 C 201.730469 206.304688 200.574219 221.09375 192.699219 234.289062 L 191.738281 236.089844 C 190.40625 238.453125 188.984375 240.621094 187.507812 242.617188 C 183.777344 247.585938 179.5625 251.472656 174.976562 254.382812 C 174.089844 254.949219 173.199219 255.476562 172.292969 255.964844 C 171.050781 256.628906 169.804688 257.222656 168.527344 257.765625 C 131.53125 273.324219 77.160156 236.4375 64.433594 198.019531 C 81.015625 227.589844 104.570312 248.746094 140.527344 254.898438 C 151.085938 216.140625 147.300781 182.804688 103.820312 164.417969 C 79.539062 155.835938 59.402344 144.378906 48.378906 126.628906 C 28.773438 165.945312 36.507812 205.269531 64.820312 244.59375 C 94.367188 276.625 147.355469 286.378906 180.664062 269.949219 C 181.554688 269.515625 182.40625 269.0625 183.261719 268.59375 C 184.71875 267.792969 186.140625 266.933594 187.507812 266.019531 C 192.308594 262.816406 196.539062 258.9375 200.023438 254.382812 C 201.484375 252.484375 202.796875 250.46875 203.96875 248.339844 C 206.816406 243.21875 208.820312 237.417969 209.851562 230.902344 C 211.417969 220.96875 210.691406 209.394531 207.042969 196.136719 L 207.042969 196.109375 C 205.25 190.882812 202.101562 185.480469 198.121094 179.886719 C 197.160156 181.183594 196.21875 182.484375 195.292969 183.800781 L 195.222656 183.925781 L 195.132812 184.039062 C 193.925781 185.628906 192.789062 187.234375 191.738281 188.84375 Z M 191.738281 188.84375 " fill-opacity="1" fill-rule="evenodd"/></g><path d="M 222.960938 137.0625 L 223.019531 136.976562 L 223.023438 136.972656 C 223.210938 136.691406 223.398438 136.414062 223.585938 136.132812 Z M 222.960938 137.0625 " fill-opacity="1" fill-rule="evenodd"/><g clip-path="url(#c01750f75a)"><path d="M 182.761719 160.796875 C 165.023438 140.035156 144.191406 116.652344 141.292969 89.59375 C 128.457031 119.519531 130.929688 152.855469 158.105469 173.203125 C 153.824219 183.152344 155.742188 193.101562 158.90625 203.050781 C 160.390625 182.738281 171.398438 169.648438 182.761719 160.796875 Z M 182.761719 160.796875 " fill-opacity="1" fill-rule="evenodd"/></g><g clip-path="url(#2ca1740656)"><path d="M 199.800781 166.191406 C 201.890625 168.117188 203.792969 170.308594 205.507812 172.757812 C 205.480469 172.777344 205.453125 172.800781 205.425781 172.820312 C 209.78125 178.304688 212.554688 185.691406 214.101562 194.539062 C 214.863281 197.363281 215.539062 200.207031 216.089844 203.066406 C 219.253906 193.109375 221.175781 183.160156 216.890625 173.203125 C 244.070312 152.851562 246.542969 119.519531 233.707031 89.589844 C 230.808594 116.652344 209.996094 140.035156 192.234375 160.796875 C 190.617188 162.675781 189.035156 164.539062 187.507812 166.375 C 185.375 168.925781 183.3125 171.425781 181.375 173.882812 C 179.792969 175.917969 178.285156 177.914062 176.878906 179.886719 C 172.898438 185.476562 169.75 190.882812 167.957031 196.109375 C 163.246094 213.273438 163.40625 227.605469 167.101562 239.222656 C 168.132812 242.464844 169.449219 245.488281 171.011719 248.3125 C 175.546875 245.4375 179.707031 241.425781 183.261719 236.089844 C 182.941406 235.496094 182.601562 234.902344 182.28125 234.289062 C 181.800781 233.472656 181.359375 232.664062 180.914062 231.839844 C 174.335938 219.269531 173.894531 205.234375 183.277344 188.84375 C 184.503906 186.683594 185.90625 184.484375 187.507812 182.246094 C 188.09375 181.394531 188.71875 180.542969 189.355469 179.691406 C 190.707031 177.753906 192.128906 175.828125 193.625 173.882812 C 195.097656 171.957031 196.648438 170.023438 198.246094 168.082031 C 198.757812 167.453125 199.277344 166.824219 199.800781 166.191406 Z M 199.800781 166.191406 " fill-opacity="1" fill-rule="evenodd"/></g><path d="M 215.546875 147.140625 C 215.4375 147.28125 215.324219 147.421875 215.214844 147.5625 C 215.324219 147.421875 215.4375 147.28125 215.546875 147.140625 Z M 215.546875 147.140625 " fill-opacity="1" fill-rule="evenodd"/><path d="M 216.785156 145.546875 C 216.679688 145.6875 216.570312 145.824219 216.464844 145.964844 C 216.570312 145.824219 216.679688 145.6875 216.785156 145.546875 Z M 216.785156 145.546875 " fill-opacity="1" fill-rule="evenodd"/><path d="M 217.390625 144.757812 C 217.292969 144.890625 217.191406 145.023438 217.089844 145.152344 Z M 217.390625 144.757812 " fill-opacity="1" fill-rule="evenodd"/><path d="M 218.007812 143.949219 C 217.90625 144.082031 217.808594 144.210938 217.710938 144.34375 Z M 218.007812 143.949219 " fill-opacity="1" fill-rule="evenodd"/><path d="M 218.628906 143.121094 C 218.527344 143.261719 218.421875 143.402344 218.316406 143.542969 C 218.421875 143.402344 218.523438 143.261719 218.628906 143.121094 Z M 218.628906 143.121094 " fill-opacity="1" fill-rule="evenodd"/><path d="M 219.242188 142.300781 C 219.132812 142.449219 219.023438 142.59375 218.914062 142.742188 C 219.023438 142.59375 219.132812 142.449219 219.242188 142.300781 Z M 219.242188 142.300781 " fill-opacity="1" fill-rule="evenodd"/><path d="M 219.84375 141.484375 C 219.734375 141.628906 219.628906 141.773438 219.523438 141.921875 C 219.628906 141.777344 219.734375 141.628906 219.84375 141.484375 Z M 219.84375 141.484375 " fill-opacity="1" fill-rule="evenodd"/><path d="M 220.441406 140.652344 C 220.332031 140.804688 220.222656 140.957031 220.113281 141.109375 C 220.222656 140.957031 220.335938 140.804688 220.441406 140.652344 Z M 220.441406 140.652344 " fill-opacity="1" fill-rule="evenodd"/><path d="M 221.019531 139.851562 C 220.914062 139.996094 220.8125 140.140625 220.710938 140.285156 C 220.8125 140.140625 220.914062 139.996094 221.019531 139.851562 Z M 221.019531 139.851562 " fill-opacity="1" fill-rule="evenodd"/><path d="M 221.625 138.996094 C 221.515625 139.152344 221.410156 139.304688 221.300781 139.457031 C 221.410156 139.304688 221.515625 139.152344 221.625 138.996094 Z M 221.625 138.996094 " fill-opacity="1" fill-rule="evenodd"/><path d="M 222.257812 138.085938 C 222.132812 138.269531 222.003906 138.453125 221.875 138.636719 C 222.003906 138.453125 222.132812 138.269531 222.257812 138.085938 Z M 222.257812 138.085938 " fill-opacity="1" fill-rule="evenodd"/><path d="M 222.960938 137.0625 C 222.792969 137.3125 222.621094 137.5625 222.449219 137.808594 C 222.621094 137.558594 222.792969 137.3125 222.960938 137.0625 Z M 222.960938 137.0625 " fill-opacity="1" fill-rule="evenodd"/><path d="M 224.140625 135.300781 C 224 135.507812 223.863281 135.71875 223.722656 135.929688 C 223.863281 135.71875 224 135.507812 224.140625 135.300781 Z M 224.140625 135.300781 " fill-opacity="1" fill-rule="evenodd"/><path d="M 224.691406 134.453125 C 224.582031 134.625 224.46875 134.796875 224.355469 134.96875 C 224.46875 134.796875 224.582031 134.625 224.691406 134.453125 Z M 224.691406 134.453125 " fill-opacity="1" fill-rule="evenodd"/><path d="M 225.230469 133.605469 C 225.125 133.773438 225.019531 133.941406 224.910156 134.109375 C 225.019531 133.941406 225.125 133.773438 225.230469 133.605469 Z M 225.230469 133.605469 " fill-opacity="1" fill-rule="evenodd"/><path d="M 225.765625 132.761719 C 225.667969 132.917969 225.566406 133.074219 225.46875 133.230469 C 225.570312 133.074219 225.667969 132.917969 225.765625 132.761719 Z M 225.765625 132.761719 " fill-opacity="1" fill-rule="evenodd"/><path d="M 226.292969 131.902344 C 226.199219 132.054688 226.105469 132.207031 226.011719 132.359375 C 226.105469 132.207031 226.199219 132.054688 226.292969 131.902344 Z M 226.292969 131.902344 " fill-opacity="1" fill-rule="evenodd"/><path d="M 226.8125 131.042969 C 226.722656 131.199219 226.625 131.351562 226.53125 131.507812 C 226.625 131.351562 226.722656 131.199219 226.8125 131.042969 Z M 226.8125 131.042969 " fill-opacity="1" fill-rule="evenodd"/><path d="M 227.324219 130.179688 C 227.234375 130.335938 227.140625 130.492188 227.046875 130.648438 C 227.140625 130.492188 227.234375 130.335938 227.324219 130.179688 Z M 227.324219 130.179688 " fill-opacity="1" fill-rule="evenodd"/><path d="M 227.828125 129.3125 C 227.738281 129.46875 227.648438 129.625 227.558594 129.78125 C 227.648438 129.625 227.738281 129.46875 227.828125 129.3125 Z M 227.828125 129.3125 " fill-opacity="1" fill-rule="evenodd"/><path d="M 228.320312 128.441406 C 228.234375 128.597656 228.144531 128.753906 228.058594 128.90625 C 228.144531 128.753906 228.234375 128.597656 228.320312 128.441406 Z M 228.320312 128.441406 " fill-opacity="1" fill-rule="evenodd"/><path d="M 228.808594 127.566406 C 228.71875 127.722656 228.632812 127.878906 228.546875 128.035156 C 228.632812 127.878906 228.71875 127.722656 228.808594 127.566406 Z M 228.808594 127.566406 " fill-opacity="1" fill-rule="evenodd"/><path d="M 229.28125 126.683594 C 229.199219 126.84375 229.113281 127 229.03125 127.15625 C 229.113281 127 229.199219 126.84375 229.28125 126.683594 Z M 229.28125 126.683594 " fill-opacity="1" fill-rule="evenodd"/><path d="M 229.75 125.800781 C 229.667969 125.960938 229.585938 126.117188 229.5 126.277344 C 229.582031 126.117188 229.664062 125.960938 229.75 125.800781 Z M 229.75 125.800781 " fill-opacity="1" fill-rule="evenodd"/><path d="M 230.203125 124.917969 C 230.121094 125.074219 230.042969 125.230469 229.964844 125.386719 C 230.042969 125.230469 230.121094 125.074219 230.203125 124.917969 Z M 230.203125 124.917969 " fill-opacity="1" fill-rule="evenodd"/><path d="M 230.652344 124.019531 C 230.574219 124.179688 230.496094 124.335938 230.414062 124.496094 C 230.496094 124.335938 230.574219 124.179688 230.652344 124.019531 Z M 230.652344 124.019531 " fill-opacity="1" fill-rule="evenodd"/><path d="M 231.085938 123.125 C 231.011719 123.285156 230.933594 123.441406 230.855469 123.601562 C 230.933594 123.441406 231.011719 123.28125 231.085938 123.125 Z M 231.085938 123.125 " fill-opacity="1" fill-rule="evenodd"/><path d="M 231.511719 122.222656 C 231.4375 122.382812 231.363281 122.542969 231.289062 122.703125 C 231.363281 122.542969 231.4375 122.382812 231.511719 122.222656 Z M 231.511719 122.222656 " fill-opacity="1" fill-rule="evenodd"/><path d="M 231.925781 121.320312 C 231.851562 121.480469 231.78125 121.636719 231.707031 121.796875 C 231.78125 121.636719 231.851562 121.480469 231.925781 121.320312 Z M 231.925781 121.320312 " fill-opacity="1" fill-rule="evenodd"/><path d="M 232.332031 120.402344 C 232.261719 120.5625 232.191406 120.726562 232.117188 120.886719 C 232.191406 120.726562 232.261719 120.5625 232.332031 120.402344 Z M 232.332031 120.402344 " fill-opacity="1" fill-rule="evenodd"/><path d="M 232.726562 119.480469 C 232.65625 119.648438 232.585938 119.8125 232.515625 119.980469 C 232.585938 119.8125 232.65625 119.648438 232.726562 119.480469 Z M 232.726562 119.480469 " fill-opacity="1" fill-rule="evenodd"/><path d="M 233.109375 118.550781 C 233.039062 118.722656 232.972656 118.890625 232.902344 119.0625 C 232.972656 118.890625 233.039062 118.722656 233.109375 118.550781 Z M 233.109375 118.550781 " fill-opacity="1" fill-rule="evenodd"/><path d="M 233.488281 117.597656 C 233.417969 117.78125 233.347656 117.960938 233.277344 118.140625 C 233.347656 117.960938 233.417969 117.78125 233.488281 117.597656 Z M 233.488281 117.597656 " fill-opacity="1" fill-rule="evenodd"/><path d="M 233.847656 116.660156 C 233.777344 116.84375 233.707031 117.03125 233.636719 117.21875 C 233.710938 117.03125 233.777344 116.84375 233.847656 116.660156 Z M 233.847656 116.660156 " fill-opacity="1" fill-rule="evenodd"/><path d="M 234.210938 115.667969 C 234.136719 115.875 234.0625 116.078125 233.988281 116.28125 C 234.0625 116.078125 234.136719 115.875 234.210938 115.667969 Z M 234.210938 115.667969 " fill-opacity="1" fill-rule="evenodd"/><path d="M 234.652344 114.40625 C 234.546875 114.722656 234.4375 115.035156 234.324219 115.347656 C 234.4375 115.035156 234.546875 114.722656 234.652344 114.40625 Z M 234.652344 114.40625 " fill-opacity="1" fill-rule="evenodd"/><path d="M 234.648438 121.285156 C 234.65625 121.132812 234.664062 120.988281 234.671875 120.839844 C 234.664062 120.988281 234.65625 121.132812 234.648438 121.285156 Z M 234.648438 121.285156 " fill-opacity="1" fill-rule="evenodd"/><path d="M 234.582031 122.457031 C 234.59375 122.269531 234.609375 122.082031 234.621094 121.894531 C 234.609375 122.082031 234.59375 122.269531 234.582031 122.457031 Z M 234.582031 122.457031 " fill-opacity="1" fill-rule="evenodd"/><path d="M 234.507812 123.460938 C 234.519531 123.289062 234.535156 123.117188 234.550781 122.945312 C 234.535156 123.117188 234.519531 123.289062 234.507812 123.460938 Z M 234.507812 123.460938 " fill-opacity="1" fill-rule="evenodd"/><path d="M 234.410156 124.542969 C 234.429688 124.359375 234.449219 124.175781 234.464844 123.992188 C 234.445312 124.175781 234.425781 124.359375 234.410156 124.542969 Z M 234.410156 124.542969 " fill-opacity="1" fill-rule="evenodd"/><path d="M 234.292969 125.640625 C 234.316406 125.441406 234.339844 125.238281 234.363281 125.03125 C 234.339844 125.238281 234.316406 125.441406 234.292969 125.640625 Z M 234.292969 125.640625 " fill-opacity="1" fill-rule="evenodd"/><path d="M 234.171875 126.644531 C 234.195312 126.453125 234.222656 126.261719 234.246094 126.070312 C 234.222656 126.261719 234.195312 126.453125 234.171875 126.644531 Z M 234.171875 126.644531 " fill-opacity="1" fill-rule="evenodd"/><path d="M 234.023438 127.695312 C 234.054688 127.496094 234.082031 127.300781 234.109375 127.101562 C 234.082031 127.300781 234.054688 127.496094 234.023438 127.695312 Z M 234.023438 127.695312 " fill-opacity="1" fill-rule="evenodd"/><path d="M 233.855469 128.78125 C 233.890625 128.5625 233.925781 128.347656 233.960938 128.128906 C 233.925781 128.347656 233.890625 128.5625 233.855469 128.78125 Z M 233.855469 128.78125 " fill-opacity="1" fill-rule="evenodd"/><path d="M 233.699219 129.683594 C 233.730469 129.503906 233.765625 129.328125 233.796875 129.148438 C 233.765625 129.328125 233.730469 129.503906 233.699219 129.683594 Z M 233.699219 129.683594 " fill-opacity="1" fill-rule="evenodd"/><path d="M 233.519531 130.636719 C 233.550781 130.480469 233.582031 130.328125 233.613281 130.171875 C 233.582031 130.328125 233.550781 130.480469 233.519531 130.636719 Z M 233.519531 130.636719 " fill-opacity="1" fill-rule="evenodd"/><path d="M 233.320312 131.621094 C 233.351562 131.472656 233.386719 131.328125 233.414062 131.183594 C 233.386719 131.328125 233.351562 131.476562 233.320312 131.621094 Z M 233.320312 131.621094 " fill-opacity="1" fill-rule="evenodd"/><path d="M 233.101562 132.625 C 233.132812 132.480469 233.167969 132.339844 233.199219 132.195312 C 233.167969 132.339844 233.132812 132.480469 233.101562 132.625 Z M 233.101562 132.625 " fill-opacity="1" fill-rule="evenodd"/><path d="M 232.832031 133.75 C 232.878906 133.5625 232.925781 133.378906 232.96875 133.191406 C 232.925781 133.378906 232.878906 133.5625 232.832031 133.75 Z M 232.832031 133.75 " fill-opacity="1" fill-rule="evenodd"/><path d="M 232.589844 134.699219 C 232.636719 134.527344 232.679688 134.359375 232.726562 134.1875 C 232.679688 134.359375 232.636719 134.527344 232.589844 134.699219 Z M 232.589844 134.699219 " fill-opacity="1" fill-rule="evenodd"/><path d="M 232.339844 135.613281 C 232.378906 135.46875 232.421875 135.324219 232.460938 135.183594 C 232.421875 135.328125 232.378906 135.46875 232.339844 135.613281 Z M 232.339844 135.613281 " fill-opacity="1" fill-rule="evenodd"/><path d="M 232.046875 136.617188 C 232.09375 136.46875 232.136719 136.316406 232.183594 136.167969 C 232.140625 136.316406 232.09375 136.46875 232.046875 136.617188 Z M 232.046875 136.617188 " fill-opacity="1" fill-rule="evenodd"/><path d="M 231.734375 137.640625 C 231.785156 137.476562 231.839844 137.3125 231.890625 137.148438 C 231.839844 137.3125 231.785156 137.476562 231.734375 137.640625 Z M 231.734375 137.640625 " fill-opacity="1" fill-rule="evenodd"/><path d="M 231.40625 138.636719 C 231.464844 138.464844 231.523438 138.292969 231.578125 138.125 C 231.523438 138.292969 231.464844 138.464844 231.40625 138.636719 Z M 231.40625 138.636719 " fill-opacity="1" fill-rule="evenodd"/><path d="M 231.066406 139.628906 C 231.128906 139.449219 231.191406 139.273438 231.253906 139.09375 C 231.191406 139.273438 231.128906 139.449219 231.066406 139.628906 Z M 231.066406 139.628906 " fill-opacity="1" fill-rule="evenodd"/><path d="M 230.710938 140.601562 C 230.78125 140.417969 230.847656 140.238281 230.914062 140.054688 C 230.847656 140.238281 230.777344 140.417969 230.710938 140.601562 Z M 230.710938 140.601562 " fill-opacity="1" fill-rule="evenodd"/><path d="M 230.367188 141.496094 C 230.429688 141.335938 230.496094 141.175781 230.558594 141.015625 C 230.496094 141.175781 230.429688 141.335938 230.367188 141.496094 Z M 230.367188 141.496094 " fill-opacity="1" fill-rule="evenodd"/><path d="M 229.980469 142.464844 C 230.046875 142.300781 230.117188 142.136719 230.183594 141.972656 C 230.117188 142.136719 230.046875 142.300781 229.980469 142.464844 Z M 229.980469 142.464844 " fill-opacity="1" fill-rule="evenodd"/><path d="M 229.570312 143.4375 C 229.644531 143.265625 229.722656 143.089844 229.796875 142.914062 C 229.722656 143.089844 229.644531 143.265625 229.570312 143.4375 Z M 229.570312 143.4375 " fill-opacity="1" fill-rule="evenodd"/><path d="M 229.164062 144.363281 C 229.238281 144.195312 229.316406 144.027344 229.390625 143.859375 C 229.316406 144.027344 229.238281 144.195312 229.164062 144.363281 Z M 229.164062 144.363281 " fill-opacity="1" fill-rule="evenodd"/><path d="M 228.734375 145.296875 C 228.8125 145.128906 228.890625 144.960938 228.96875 144.792969 C 228.890625 144.960938 228.8125 145.128906 228.734375 145.296875 Z M 228.734375 145.296875 " fill-opacity="1" fill-rule="evenodd"/><path d="M 228.3125 146.175781 C 228.386719 146.023438 228.460938 145.875 228.53125 145.722656 C 228.460938 145.875 228.386719 146.027344 228.3125 146.175781 Z M 228.3125 146.175781 " fill-opacity="1" fill-rule="evenodd"/><path d="M 227.859375 147.085938 C 227.933594 146.941406 228.007812 146.796875 228.078125 146.652344 C 228.007812 146.796875 227.933594 146.941406 227.859375 147.085938 Z M 227.859375 147.085938 " fill-opacity="1" fill-rule="evenodd"/><path d="M 227.375 148.019531 C 227.453125 147.867188 227.535156 147.71875 227.613281 147.566406 C 227.535156 147.71875 227.453125 147.867188 227.375 148.019531 Z M 227.375 148.019531 " fill-opacity="1" fill-rule="evenodd"/><path d="M 226.886719 148.925781 C 226.96875 148.777344 227.050781 148.628906 227.132812 148.480469 C 227.050781 148.628906 226.96875 148.777344 226.886719 148.925781 Z M 226.886719 148.925781 " fill-opacity="1" fill-rule="evenodd"/><path d="M 226.371094 149.847656 C 226.457031 149.691406 226.546875 149.539062 226.632812 149.386719 C 226.546875 149.539062 226.457031 149.691406 226.371094 149.847656 Z M 226.371094 149.847656 " fill-opacity="1" fill-rule="evenodd"/><path d="M 225.832031 150.765625 C 225.929688 150.605469 226.027344 150.445312 226.117188 150.285156 C 226.023438 150.445312 225.929688 150.605469 225.832031 150.765625 Z M 225.832031 150.765625 " fill-opacity="1" fill-rule="evenodd"/><path d="M 225.3125 151.632812 C 225.402344 151.480469 225.5 151.328125 225.589844 151.175781 C 225.5 151.328125 225.402344 151.480469 225.3125 151.632812 Z M 225.3125 151.632812 " fill-opacity="1" fill-rule="evenodd"/><path d="M 224.769531 152.496094 C 224.863281 152.355469 224.953125 152.210938 225.042969 152.070312 C 224.953125 152.210938 224.863281 152.355469 224.769531 152.496094 Z M 224.769531 152.496094 " fill-opacity="1" fill-rule="evenodd"/><path d="M 224.199219 153.378906 C 224.292969 153.234375 224.390625 153.089844 224.484375 152.945312 C 224.390625 153.089844 224.292969 153.234375 224.199219 153.378906 Z M 224.199219 153.378906 " fill-opacity="1" fill-rule="evenodd"/><path d="M 223.632812 154.226562 C 223.722656 154.09375 223.816406 153.960938 223.902344 153.824219 C 223.8125 153.960938 223.722656 154.09375 223.632812 154.226562 Z M 223.632812 154.226562 " fill-opacity="1" fill-rule="evenodd"/><path d="M 223.003906 155.132812 C 223.109375 154.984375 223.210938 154.839844 223.3125 154.691406 C 223.210938 154.839844 223.109375 154.984375 223.003906 155.132812 Z M 223.003906 155.132812 " fill-opacity="1" fill-rule="evenodd"/><path d="M 222.378906 156.007812 C 222.488281 155.855469 222.601562 155.703125 222.707031 155.550781 C 222.601562 155.703125 222.488281 155.855469 222.378906 156.007812 Z M 222.378906 156.007812 " fill-opacity="1" fill-rule="evenodd"/><path d="M 221.765625 156.832031 C 221.871094 156.691406 221.980469 156.550781 222.082031 156.410156 C 221.980469 156.550781 221.871094 156.691406 221.765625 156.832031 Z M 221.765625 156.832031 " fill-opacity="1" fill-rule="evenodd"/><path d="M 221.109375 157.691406 C 221.222656 157.546875 221.335938 157.402344 221.445312 157.257812 C 221.335938 157.402344 221.222656 157.546875 221.109375 157.691406 Z M 221.109375 157.691406 " fill-opacity="1" fill-rule="evenodd"/><path d="M 220.457031 158.519531 C 220.570312 158.378906 220.683594 158.238281 220.792969 158.101562 C 220.683594 158.238281 220.570312 158.378906 220.457031 158.519531 Z M 220.457031 158.519531 " fill-opacity="1" fill-rule="evenodd"/><path d="M 219.789062 159.34375 C 219.898438 159.210938 220.011719 159.074219 220.121094 158.9375 C 220.011719 159.074219 219.898438 159.210938 219.789062 159.34375 Z M 219.789062 159.34375 " fill-opacity="1" fill-rule="evenodd"/><path d="M 219.070312 160.199219 C 219.195312 160.054688 219.316406 159.910156 219.4375 159.765625 C 219.316406 159.910156 219.195312 160.054688 219.070312 160.199219 Z M 219.070312 160.199219 " fill-opacity="1" fill-rule="evenodd"/><path d="M 218.359375 161.019531 C 218.488281 160.878906 218.613281 160.734375 218.738281 160.585938 C 218.613281 160.734375 218.488281 160.878906 218.359375 161.019531 Z M 218.359375 161.019531 " fill-opacity="1" fill-rule="evenodd"/><path d="M 217.644531 161.824219 C 217.773438 161.683594 217.898438 161.546875 218.023438 161.40625 C 217.898438 161.546875 217.773438 161.683594 217.644531 161.824219 Z M 217.644531 161.824219 " fill-opacity="1" fill-rule="evenodd"/><path d="M 216.902344 162.632812 C 217.035156 162.492188 217.164062 162.351562 217.292969 162.214844 C 217.164062 162.355469 217.035156 162.492188 216.902344 162.632812 Z M 216.902344 162.632812 " fill-opacity="1" fill-rule="evenodd"/><path d="M 216.148438 163.429688 C 216.285156 163.292969 216.417969 163.152344 216.546875 163.015625 C 216.417969 163.152344 216.28125 163.292969 216.148438 163.429688 Z M 216.148438 163.429688 " fill-opacity="1" fill-rule="evenodd"/><path d="M 215.390625 164.214844 C 215.523438 164.078125 215.65625 163.945312 215.785156 163.8125 C 215.65625 163.945312 215.523438 164.078125 215.390625 164.214844 Z M 215.390625 164.214844 " fill-opacity="1" fill-rule="evenodd"/><path d="M 214.621094 164.984375 C 214.75 164.855469 214.882812 164.726562 215.007812 164.597656 C 214.882812 164.726562 214.75 164.855469 214.621094 164.984375 Z M 214.621094 164.984375 " fill-opacity="1" fill-rule="evenodd"/><path d="M 213.820312 165.761719 C 213.953125 165.636719 214.085938 165.507812 214.214844 165.382812 C 214.085938 165.507812 213.953125 165.636719 213.820312 165.761719 Z M 213.820312 165.761719 " fill-opacity="1" fill-rule="evenodd"/><path d="M 213.003906 166.535156 C 213.140625 166.40625 213.277344 166.28125 213.410156 166.152344 C 213.277344 166.28125 213.140625 166.40625 213.003906 166.535156 Z M 213.003906 166.535156 " fill-opacity="1" fill-rule="evenodd"/><path d="M 212.171875 167.300781 C 212.3125 167.175781 212.449219 167.046875 212.589844 166.921875 C 212.449219 167.050781 212.3125 167.175781 212.171875 167.300781 Z M 212.171875 167.300781 " fill-opacity="1" fill-rule="evenodd"/><path d="M 211.328125 168.054688 C 211.46875 167.929688 211.613281 167.804688 211.753906 167.679688 C 211.613281 167.804688 211.46875 167.929688 211.328125 168.054688 Z M 211.328125 168.054688 " fill-opacity="1" fill-rule="evenodd"/><path d="M 210.464844 168.804688 C 210.609375 168.679688 210.753906 168.558594 210.898438 168.433594 C 210.753906 168.558594 210.609375 168.679688 210.464844 168.804688 Z M 210.464844 168.804688 " fill-opacity="1" fill-rule="evenodd"/><path d="M 209.574219 169.558594 C 209.726562 169.433594 209.882812 169.304688 210.03125 169.175781 C 209.882812 169.304688 209.726562 169.433594 209.574219 169.558594 Z M 209.574219 169.558594 " fill-opacity="1" fill-rule="evenodd"/><path d="M 208.683594 170.292969 C 208.839844 170.167969 208.996094 170.039062 209.152344 169.914062 C 208.996094 170.039062 208.839844 170.167969 208.683594 170.292969 Z M 208.683594 170.292969 " fill-opacity="1" fill-rule="evenodd"/><path d="M 207.792969 171.007812 C 207.945312 170.886719 208.101562 170.765625 208.253906 170.644531 C 208.101562 170.765625 207.945312 170.886719 207.792969 171.007812 Z M 207.792969 171.007812 " fill-opacity="1" fill-rule="evenodd"/><path d="M 206.878906 171.722656 C 207.03125 171.605469 207.1875 171.488281 207.339844 171.367188 C 207.1875 171.488281 207.03125 171.605469 206.878906 171.722656 Z M 206.878906 171.722656 " fill-opacity="1" fill-rule="evenodd"/><path d="M 205.941406 172.4375 C 206.097656 172.320312 206.257812 172.203125 206.410156 172.082031 C 206.257812 172.203125 206.097656 172.320312 205.941406 172.4375 Z M 205.941406 172.4375 " fill-opacity="1" fill-rule="evenodd"/><g clip-path="url(#e42d39035f)"><path d="M 271.175781 164.417969 C 227.683594 182.804688 223.914062 216.140625 234.472656 254.898438 C 270.429688 248.746094 293.984375 227.589844 310.570312 198.019531 C 297.839844 236.417969 243.503906 273.296875 206.511719 257.78125 C 204.839844 260.0625 202.957031 262.265625 200.859375 264.375 C 198.832031 266.40625 196.664062 268.273438 194.386719 269.976562 C 227.71875 286.371094 280.65625 276.59375 310.179688 244.59375 C 338.496094 205.269531 346.226562 165.941406 326.621094 126.625 C 315.601562 144.375 295.460938 155.832031 271.175781 164.414062 Z M 271.175781 164.417969 " fill-opacity="1" fill-rule="evenodd"/></g></svg>